<?xml version="1.0" encoding="UTF-8" standalone="no"?>
<!DOCTYPE svg PUBLIC "-//W3C//DTD SVG 20010904//EN"
"http://www.w3.org/TR/2001/REC-SVG-20010904/DTD/svg10.dtd">
<svg
   xmlns:dc="http://purl.org/dc/elements/1.1/"
   xmlns:cc="http://creativecommons.org/ns#"
   xmlns:rdf="http://www.w3.org/1999/02/22-rdf-syntax-ns#"
   xmlns:svg="http://www.w3.org/2000/svg"
   xmlns="http://www.w3.org/2000/svg"
   version="1.1"
   width="176"
   height="91"
   id="svg1">
  <path
     d="m 1.6218838,0.91587741 c 0.538,-0.09 13.9530002,6.991 22.9700002,9.4379996 16.079,4.109 30.756,16.476 37.85,23.58 0.526,0.608 6.093,-4.168 11.919,-3.824 7.958,0.482 32.581996,7.406 35.871996,2.691 1.995,-2.768 1.852,-6.164 4.341,-7.555 1.34,-0.375 -4.981,-11.936 1.737,-15.64 4.79,-2.3939996 8.849,11.009 10.079,12.511 0.551,0.672 3.474,0.836 3.128,-0.695 -0.375,-1.663 -5.103,-14.5239996 0.695,-16.6819996 9.417,-3.729 7.748,16.4559996 7.993,17.0299996 0.521,1.222 32.797,2.164 34.754,16.682 1.132,7.99 -25.858,18.317 -28.498,20.157 -2.639,1.84 -2.419,4.783 -1.39,6.604 1.183,1.975 9.046,8.641 7.994,11.816 -0.723,1.834 -15.398,-4.888 -16.335,-3.475 -2.137,2.699 10.683,9.455 6.256,14.249 -1.755,1.148 -21.947,-8.454 -21.896,-8.341 -0.542,0.206 -28.531996,5.113 -50.045996,-1.391 -0.758,-0.214 -13.808,12.606 -15.292,12.165 -2.029,-0.744 2.991,-11.15 2.433,-13.207 -0.912,-1.146 -9.251,4.653 -9.731,1.738 -0.574,-3.831 7.318,-8.235 6.951,-10.774 -2.035,-14.424 0.909,-22.847 5.908,-29.888 1.667,-2.592 -19.592,-18.646 -34.983,-24.982 C 8.9408838,6.7868774 0.70688377,1.4168774 1.6218838,0.91587741 z"
     id="path14"
     style="fill:#020202;stroke:#000002;stroke-width:1pt" />
  <path
     d="m 139.93424,49.143277 c -0.169,-0.59 10.503,-7.045 12.048,-5.561 2.781,1.008 -11.95,6.31 -12.048,5.561 z"
     id="path7"
     style="fill:#ffffff;stroke:#000000;stroke-width:0.6pt" />
  <path
     d="m 145.03124,55.013277 c -0.94,-0.568 6.389,-9.114 8.187,-8.187 2.625,2.608 -8.31,8.39 -8.187,8.187 z"
     id="path8"
     style="fill:#ffffff;stroke:#000000;stroke-width:0.6pt" />
  <path
     d="m 173.91624,15.470277 c -0.891,-0.737 -7.878,10.287 -6.333,11.431 0.929,0.695 6.731,-11.038 6.333,-11.431 z"
     id="path13"
     style="fill:#020202;stroke:#000000;stroke-width:0.6pt" />
  <ellipse
     cx="288.86475"
     cy="374.58655"
     rx="3.012037"
     ry="3.398196"
     transform="matrix(0.9253,0,0,0.933788,-124.97146,-318.53572)"
     id="ellipse17"
     style="fill:#ffffff;stroke:#000000;stroke-width:0.6pt" />
  <path
     d="m 165.88414,13.925647 c -0.441,-0.512 -2.781,11.368 -1.699,11.894 0.929,0.695 2.547,-11.276 1.699,-11.894 z"
     id="path18"
     style="fill:#020202;stroke:#000000;stroke-width:0.6pt" />
  <path
     d="m 136.05934,30.003277 c -2.771,1.959 1.521,13.045 8.58,6.572 -5.546,0.163 -7.396,-1.461 -8.58,-6.572 z"
     id="path21"
     style="fill:#ffffff;stroke:#000000;stroke-width:0.6pt" />
</svg>